HIERARCHY
ROOT Hips
{
 OFFSET 0.000000 0.000000 0.000000
 CHANNELS 6 Xposition Yposition Zposition Yrotation Xrotation Zrotation
 JOINT Chest
 {
  OFFSET 0.000000 13.173100 -0.061900
  CHANNELS 3 Yrotation Xrotation Zrotation
  JOINT Chest2
  {
   OFFSET 0.000000 8.040800 0.126200
   CHANNELS 3 Yrotation Xrotation Zrotation
   JOINT Chest3
   {
    OFFSET 0.000000 7.994400 0.000000
    CHANNELS 3 Yrotation Xrotation Zrotation
    JOINT Chest4
    {
     OFFSET 0.000000 7.986200 0.000000
     CHANNELS 3 Yrotation Xrotation Zrotation
     JOINT Neck
     {
      OFFSET 0.000000 12.259400 0.000000
      CHANNELS 3 Yrotation Xrotation Zrotation
      JOINT Head
      {
       OFFSET 0.000000 7.518700 0.267100
       CHANNELS 3 Yrotation Xrotation Zrotation
       End Site
       {
        OFFSET 0.000000 13.617700 0.141000
       }
      }
     }
     JOINT RightCollar
     {
      OFFSET -2.983800 8.314300 0.000000
      CHANNELS 3 Yrotation Xrotation Zrotation
      JOINT RightShoulder
      {
       OFFSET -16.133400 0.000000 0.000000
       CHANNELS 3 Yrotation Xrotation Zrotation
       JOINT RightElbow
       {
        OFFSET 0.000000 -29.822100 0.000000
        CHANNELS 3 Yrotation Xrotation Zrotation
        JOINT RightWrist
        {
         OFFSET 0.000000 -24.437700 0.010900
         CHANNELS 3 Yrotation Xrotation Zrotation
         End Site
         {
          OFFSET 0.000000 -18.312300 0.000000
         }
        }
       }
      }
     }
     JOINT LeftCollar
     {
      OFFSET 2.983800 8.314300 0.000000
      CHANNELS 3 Yrotation Xrotation Zrotation
      JOINT LeftShoulder
      {
       OFFSET 16.133400 0.000000 0.000000
       CHANNELS 3 Yrotation Xrotation Zrotation
       JOINT LeftElbow
       {
        OFFSET 0.000000 -29.822100 0.000000
        CHANNELS 3 Yrotation Xrotation Zrotation
        JOINT LeftWrist
        {
         OFFSET 0.000000 -24.437700 0.010900
         CHANNELS 3 Yrotation Xrotation Zrotation
         End Site
         {
          OFFSET 0.000000 -18.312300 0.000000
         }
        }
       }
      }
     }
    }
   }
  }
 }
 JOINT RightHip
 {
  OFFSET -11.206700 0.306200 0.030900
  CHANNELS 3 Yrotation Xrotation Zrotation
  JOINT RightKnee
  {
   OFFSET 0.000000 -57.334900 0.009400
   CHANNELS 3 Yrotation Xrotation Zrotation
   JOINT RightAnkle
   {
    OFFSET 0.000000 -43.376200 0.036600
    CHANNELS 3 Yrotation Xrotation Zrotation
    JOINT RightToe
    {
     OFFSET 0.000000 -10.035500 18.363100
     CHANNELS 3 Yrotation Xrotation Zrotation
     End Site
     {
      OFFSET 0.000000 -1.618500 7.239000
     }
    }
   }
  }
 }
 JOINT LeftHip
 {
  OFFSET 11.206700 0.306200 0.030900
  CHANNELS 3 Yrotation Xrotation Zrotation
  JOINT LeftKnee
  {
   OFFSET 0.000000 -57.334900 0.009400
   CHANNELS 3 Yrotation Xrotation Zrotation
   JOINT LeftAnkle
   {
    OFFSET 0.000000 -43.376200 0.036600
    CHANNELS 3 Yrotation Xrotation Zrotation
    JOINT LeftToe
    {
     OFFSET 0.000000 -10.035500 18.363100
     CHANNELS 3 Yrotation Xrotation Zrotation
     End Site
     {
      OFFSET 0.000000 -1.618500 7.239000
     }
    }
   }
  }
 }
}
MOTION
Frames: 15
Frame Time: 0.008333
-77.575664 70.774781 53.864322 -167.772212 -38.836056 -11.386234 -4.203519 12.743821 3.918947 -2.170519 7.359593 1.264362 -2.682079 9.251575 1.504558 -2.176656 7.335795 1.265666 2.042184 27.384858 -1.875566 2.645277 4.382536 -2.530205 8.112965 1.939929 -0.360116 0.104055 -26.372018 -2.185459 46.317304 -27.120372 -26.418544 6.564105 2.273605 -19.561665 -9.084260 -1.683588 -6.533157 -7.659244 -20.364987 5.326376 -157.818944 -61.648680 134.147302 19.438647 -10.614698 1.432632 -21.476458 -21.799358 -0.718283 42.451086 87.540987 39.707618 -0.427949 -23.652864 -1.210418 -0.131883 0.853958 -0.084605 -13.802780 -38.097275 3.344920 174.714270 74.037370 172.703941 -3.301258 -22.532923 1.001063 -0.220309 -2.001600 -0.090539
-77.606695 70.782116 53.878322 -167.800886 -39.055846 -11.225766 -4.244195 12.761266 3.781722 -2.138882 7.445547 1.241886 -2.673124 9.348859 1.494835 -2.160978 7.389202 1.253015 2.098966 27.619125 -1.877732 2.689482 4.716825 -2.532628 8.150154 1.913663 -0.317554 0.137114 -26.443624 -2.323631 46.211156 -27.215193 -26.461513 6.538641 2.240341 -19.458697 -9.106013 -1.863158 -6.644577 -7.865912 -20.673482 5.474790 -159.718200 -61.633078 135.607896 19.753328 -10.859498 1.284682 -21.295757 -21.683745 -0.972510 43.081734 87.553199 40.346287 -0.433787 -23.637142 -1.183291 -0.135080 0.866216 -0.082784 -13.598875 -37.880711 3.143984 174.802519 74.132006 172.762723 -3.391034 -22.544040 1.009926 -0.138699 -1.935036 -0.053073
-77.641323 70.793367 53.890699 -167.826312 -39.321457 -11.075599 -4.258828 12.824523 3.636051 -2.115744 7.499267 1.230632 -2.632505 9.396480 1.494651 -2.134748 7.498382 1.235053 2.121171 27.873789 -1.858380 2.731210 5.093798 -2.516554 8.108103 1.888208 -0.289044 0.153547 -26.478072 -2.389322 46.129685 -27.296010 -26.521748 6.511233 2.211871 -19.382371 -9.154867 -2.038425 -6.737517 -8.076357 -20.933008 5.588661 -161.676549 -61.666467 137.095600 20.036559 -11.085670 1.174978 -21.113319 -21.516283 -1.244406 43.845387 87.545439 41.123018 -0.444361 -23.621882 -1.169616 -0.131430 0.860810 -0.081951 -13.390212 -37.618480 2.937671 174.933027 74.217937 172.839599 -3.442757 -22.561260 1.050201 -0.095080 -1.874027 -0.030689
-77.658672 70.889059 53.810122 -167.815188 -40.145580 -11.134330 -4.161594 13.435766 3.628893 -2.091951 7.547443 1.220866 -2.595219 9.440756 1.485819 -2.105266 7.560275 1.222272 2.151245 28.188098 -1.820957 2.773231 5.499679 -2.490236 8.064405 1.926363 -0.242586 0.150913 -26.481641 -2.427091 46.068037 -27.364849 -26.591595 6.493411 2.186914 -19.336458 -9.176517 -2.158214 -6.824422 -8.269600 -21.149878 5.658767 -163.690560 -61.746086 138.592491 20.274949 -11.268671 1.084754 -20.866206 -20.395368 -1.599575 40.244517 87.220428 37.506799 -0.299695 -24.303498 -1.135222 -0.260723 1.566402 -0.153665 -13.122619 -36.360820 2.775161 174.995478 74.441045 172.879364 -3.529716 -23.628885 1.059910 -0.025136 -1.038771 0.006831
-77.661838 70.898007 53.830701 -167.858798 -40.408830 -11.146823 -4.126300 13.493517 3.641906 -2.070147 7.587745 1.214142 -2.567971 9.490970 1.477597 -2.070171 7.587715 1.214127 2.184745 28.517960 -1.782678 2.818175 5.913617 -2.464956 8.057364 1.893230 -0.144072 0.048004 -26.420269 -2.432439 46.094889 -27.354900 -26.644874 6.490638 2.161511 -19.320515 -9.163568 -2.257463 -6.911122 -8.430640 -21.331363 5.691792 -165.753095 -61.857950 140.091812 20.466837 -11.390458 0.995919 -20.779279 -20.157633 -1.659483 39.641379 87.193882 36.887050 -0.266574 -24.247497 -1.132368 -0.271994 1.576118 -0.157947 -13.037314 -36.108246 2.781558 175.113479 74.452188 172.973456 -3.530828 -23.607279 1.073758 -0.025084 -1.048570 0.002159
-77.667685 70.898726 53.859736 -167.892081 -40.636930 -11.165269 -4.104604 13.543417 3.646135 -2.053097 7.617744 1.210656 -2.546564 9.528393 1.473435 -2.053106 7.617734 1.210637 2.235003 28.830850 -1.754794 2.870396 6.324106 -2.447772 8.042406 1.890408 -0.115090 -0.090545 -26.367676 -2.322652 46.187414 -27.313980 -26.718780 6.505302 2.136719 -19.337419 -9.104820 -2.364129 -6.992638 -8.550605 -21.478689 5.692573 -167.879304 -61.992515 141.613999 20.615130 -11.438683 0.893438 -20.729520 -19.955618 -1.705189 39.089340 87.167872 36.307878 -0.234761 -24.200144 -1.134782 -0.286750 1.602958 -0.159591 -12.969857 -35.898714 2.790673 175.215059 74.462057 173.054906 -3.525444 -23.585884 1.082626 -0.029613 -1.050836 0.003064
-77.673794 70.890812 53.897356 -167.920622 -40.816860 -11.191742 -4.087414 13.582427 3.650736 -2.041649 7.635468 1.210348 -2.532178 9.550532 1.473238 -2.041620 7.635491 1.210367 2.290035 29.138973 -1.735211 2.929879 6.730826 -2.440717 8.035946 1.882705 -0.112264 -0.246377 -26.293176 -2.168113 46.316287 -27.236932 -26.788463 6.542844 2.109289 -19.392183 -9.026428 -2.466288 -7.060489 -8.629346 -21.584052 5.659581 -170.098738 -62.152397 143.196431 20.738643 -11.409217 0.763921 -20.684086 -19.801052 -1.723561 38.493586 87.146855 35.693560 -0.224423 -24.154042 -1.126848 -0.285294 1.618217 -0.160470 -12.923713 -35.743332 2.815517 175.285184 74.469310 173.115004 -3.533665 -23.569024 1.088752 -0.023321 -1.040970 0.004626
-77.679970 70.873769 53.944189 -167.931005 -40.931203 -11.230278 -4.083752 13.598398 3.655215 -2.035759 7.640023 1.213223 -2.514721 9.599458 1.481895 -2.037231 7.641104 1.211069 2.339009 29.398156 -1.725231 2.992282 7.134436 -2.443848 8.027541 1.827146 -0.142163 -0.419837 -26.205742 -1.963162 46.487183 -27.111345 -26.855712 6.604720 2.074005 -19.484690 -8.946505 -2.611227 -7.100232 -8.671596 -21.642812 5.588369 -172.433914 -62.343017 144.863990 20.874964 -11.321066 0.600137 -20.674961 -19.706072 -1.715799 38.009232 87.122310 35.185137 -0.221732 -24.119567 -1.112683 -0.284328 1.643777 -0.163638 -12.910200 -35.663669 2.855210 175.360340 74.474253 173.182345 -3.532165 -23.542986 1.093701 -0.020826 -1.026069 0.007683
-77.686374 70.850422 53.997727 -167.929542 -40.986003 -11.273569 -4.085956 13.595634 3.658840 -2.026914 7.660558 1.231199 -2.528327 9.536771 1.476301 -2.035082 7.633788 1.217393 2.394847 29.717894 -1.723564 3.054762 7.531673 -2.456413 8.028110 1.831244 -0.189476 -0.585487 -26.105124 -1.725647 46.686401 -26.941490 -26.919892 6.688033 2.040521 -19.614534 -8.858377 -2.687229 -7.126296 -8.670301 -21.666987 5.478282 -174.918746 -62.561582 146.636924 21.044717 -11.206315 0.416083 -20.712877 -19.662434 -1.679630 37.599330 87.090254 34.727406 -0.230153 -24.106427 -1.090842 -0.280837 1.689270 -0.169628 -12.916474 -35.649158 2.900586 175.428110 74.480136 173.250360 -3.525031 -23.514101 1.095005 -0.021058 -1.008541 0.007255
-77.812905 70.771097 54.104357 -168.266347 -40.809452 -10.525006 -3.998967 13.311644 3.098561 -2.026502 7.653115 1.251895 -2.543615 9.476882 1.470806 -2.038870 7.611082 1.226228 2.449461 30.029491 -1.731818 3.115354 7.919876 -2.479107 8.029556 1.828517 -0.257111 -0.723025 -25.994607 -1.476767 46.904771 -26.730652 -26.977272 6.784368 2.031928 -19.775152 -8.779490 -2.749608 -7.124742 -8.614985 -21.679167 5.336545 -177.594846 -62.800049 148.542461 21.236617 -11.094414 0.229591 -20.356350 -20.498859 -2.099705 43.528662 87.449131 40.598073 -0.430605 -23.453655 -1.055125 -0.123037 1.020235 -0.085985 -12.354482 -36.015720 2.254755 175.167164 74.634964 172.926600 -3.558367 -23.364680 1.146898 -0.000369 -0.966143 0.017822
-77.821711 70.748647 54.159347 -168.264093 -40.802318 -10.554137 -3.991982 13.302529 3.095722 -2.040448 7.612829 1.257529 -2.542235 9.445832 1.484103 -2.044610 7.579269 1.235253 2.492409 30.309884 -1.751628 3.170741 8.298428 -2.512761 8.022434 1.807123 -0.339248 -0.814400 -25.884590 -1.239556 47.128126 -26.478908 -27.022561 6.879690 2.055920 -19.953753 -8.723811 -2.809058 -7.095052 -8.517208 -21.696475 5.171374 179.571495 -63.034426 150.561430 21.424336 -11.008951 0.037898 -20.368763 -20.518464 -2.064743 43.094054 87.421956 40.145246 -0.442881 -23.432573 -1.030767 -0.124973 1.049360 -0.087263 -12.354078 -36.060876 2.280885 175.219312 74.651434 172.998174 -3.544208 -23.335634 1.144775 -0.006833 -0.952321 0.012099
-77.820826 70.724854 54.219404 -168.249031 -40.728718 -10.624163 -3.997396 13.237416 3.147546 -2.047746 7.536143 1.227856 -2.542689 9.431740 1.516187 -2.050436 7.540236 1.244460 2.525364 30.581033 -1.782252 3.217512 8.666048 -2.556165 8.007639 1.801769 -0.421514 -0.843258 -25.785254 -1.033188 47.327052 -26.193606 -27.048688 6.962612 2.092716 -20.128523 -8.688083 -2.836466 -7.045806 -8.406733 -21.724829 4.993748 176.722981 -63.219949 152.594670 21.585570 -10.958681 -0.159577 -20.419554 -20.582479 -1.967330 42.713180 87.374146 39.749401 -0.469253 -23.400287 -1.007624 -0.120191 1.060545 -0.086228 -12.398803 -36.169527 2.361510 175.275948 74.662184 173.088743 -3.523046 -23.305902 1.136741 -0.014372 -0.928306 0.009154
-77.820129 70.709124 54.273824 -168.228456 -40.658590 -10.695794 -4.005610 13.175736 3.197164 -2.050800 7.511514 1.231883 -2.548076 9.346366 1.515510 -2.054624 7.498096 1.253052 2.547211 30.841069 -1.823057 3.254067 9.020102 -2.608370 7.986011 1.819873 -0.496360 -0.808474 -25.703695 -0.868185 47.481701 -25.895328 -27.051802 7.029415 2.124356 -20.267572 -8.666488 -2.835005 -6.982497 -8.318753 -21.764320 4.820328 174.069887 -63.318012 154.489158 21.722089 -10.943042 -0.358325 -20.430282 -20.631971 -1.881379 42.080216 87.325631 39.131384 -0.500996 -23.369890 -0.974339 -0.114523 1.074503 -0.085495 -12.466055 -36.263909 2.453338 175.351669 74.679191 173.181119 -3.512311 -23.276955 1.133150 -0.010317 -0.903005 0.007591
-77.698375 70.757717 54.270228 -167.870582 -40.795397 -11.559651 -4.085196 13.370854 3.773210 -2.059384 7.518702 1.278314 -2.550490 9.254100 1.514980 -2.056610 7.456281 1.261208 2.555619 31.051069 -1.842566 3.278239 9.393247 -2.701647 7.964759 1.862708 -0.563725 -0.726944 -25.647880 -0.748508 47.592124 -25.610867 -27.029286 7.076843 2.147355 -20.355688 -8.648985 -2.817257 -6.912186 -8.276747 -21.816101 4.666438 171.820571 -63.313896 156.092383 21.852221 -10.956348 -0.557646 -20.862364 -19.813264 -1.315120 35.601241 86.874302 32.658956 -0.357120 -23.973965 -0.963874 -0.248621 1.799490 -0.161988 -13.110537 -35.986420 3.239991 175.736222 74.554115 173.651007 -3.452379 -23.375028 1.072482 -0.035267 -0.906756 -0.006916
-77.700447 70.761291 54.308219 -167.867997 -40.773916 -11.607273 -4.078020 13.346832 3.813870 -2.057487 7.455031 1.260973 -2.553588 9.231775 1.530079 -2.054496 7.393144 1.268758 2.557761 31.295528 -1.920557 3.294822 9.682084 -2.758330 7.950248 1.921127 -0.627350 -0.621355 -25.623151 -0.676976 47.663625 -25.361090 -26.980639 7.100119 2.158428 -20.395387 -8.631743 -2.801008 -6.841387 -8.280704 -21.885217 4.541361 170.087338 -63.211036 157.314673 21.980675 -10.989458 -0.747510 -20.861142 -19.809617 -1.266766 35.294255 86.808133 32.360360 -0.376597 -23.944222 -0.946662 -0.249976 1.814957 -0.163128 -13.133025 -36.012673 3.296333 175.730943 74.580858 173.663988 -3.448359 -23.344996 1.070174 -0.039841 -0.902141 -0.010987
